<?xml version="1.0" encoding="utf-8"?>
<!-- Generator: Adobe Illustrator 24.0.0, SVG Export Plug-In . SVG Version: 6.00 Build 0)  -->
<svg version="1.1" id="Layer_1" xmlns="http://www.w3.org/2000/svg" xmlns:xlink="http://www.w3.org/1999/xlink" x="0px" y="0px"
	 viewBox="0 0 595.3 545.2" style="enable-background:new 0 0 595.3 545.2;" xml:space="preserve">
<style type="text/css">
	.st0{fill:#049669;}
	.st1{display:none;}
	.st2{display:inline;}
	.st3{fill:#454545;}
	.st4{font-family:'Neufreit-ExtraBold';}
	.st5{font-size:111.6256px;}
	.st6{font-family:'NexaXBold';}
	.st7{font-size:34.9618px;}
</style>
<g>
	<g>
		<path class="st0" d="M384.1,228.1c0.1-11.7-2-41.2-24.8-61.5c-18.2-16.2-45.1-22.7-80-19.4c-2.3-3-6-4.9-10.1-4.9
			c-7.1,0-12.8,5.7-12.8,12.8c0,7.1,5.7,12.8,12.8,12.8c6.2,0,11.4-4.4,12.6-10.3c31.1-2.8,54.8,2.9,70.5,16.9
			c16.8,15,20.5,36.2,21.2,48.4c-18.6-12.6-57.3-33.5-104-28.6c-41.6,4.3-79.6,28.2-113,70.8c-0.5-0.1-1.1-0.1-1.6-0.1
			c-7.1,0-12.8,5.7-12.8,12.8c0,7.1,5.7,12.8,12.8,12.8c7.1,0,12.8-5.7,12.8-12.8c0-2.6-0.8-5-2.1-7c31.3-39.7,66.6-61.9,104.9-65.9
			c57.8-6.1,104.1,31.8,107.6,34.8l25.5,28.6l-7.7,4.8c-5,3.1-7.9,8.4-7.9,14.2v21.5c-19-6.2-71.5-20.4-116.7-4.1
			c-2.6-2.3-6-3.8-9.7-3.8c-0.9,0-1.8,0.1-2.7,0.3c-4.7-9-7.8-19.3-9.1-30.8c4.1-2.1,6.8-6.4,6.8-11.3c0-7.1-5.7-12.8-12.8-12.8
			c-7.1,0-12.8,5.7-12.8,12.8c0,5.4,3.4,10.1,8.2,11.9c1.5,13.5,5.1,25.5,10.7,35.9c-1.7,2.4-2.7,5.3-2.7,8.4c0,0.6,0,1.1,0.1,1.7
			c-17.5,12.2-30.3,30-38.3,53.1c-5.3,1.6-9.2,6.5-9.2,12.3c0,7.1,5.7,12.8,12.8,12.8c7.1,0,12.8-5.7,12.8-12.8
			c0-4.5-2.3-8.4-5.8-10.7c7.1-19.5,18.1-34.6,32.8-45.3c2.5,2.1,5.7,3.3,9.2,3.3c1.9,0,3.8-0.4,5.5-1.1c0.2,0.2,0.5,0.5,0.7,0.7
			c18.5,16.2,41.9,22.5,60.1,24.7c-6.1,5-10,11.1-12.5,16.8c-5.4,12.1-5.3,23.9-5.3,24.4l10.6-0.1c0-1.6,0.2-37.5,33.5-40
			c0.9-0.1,1.6-0.1,1.9-0.1h25.9c9.2,0,16.8-7.5,16.8-16.8v-50.9c0-2.1,1.1-4.1,2.9-5.2l18.5-11.4l-34.1-38.3
			C384.7,231,384.1,229.6,384.1,228.1z M381.7,344.2h-26.1l-0.2,0c-0.9,0-1.7,0.1-2.6,0.2c-10.1,0.4-51.1,0.6-78.3-23.2c0,0,0,0,0,0
			c0.8-1.8,1.3-3.8,1.3-6c0-0.3,0-0.7-0.1-1c44.6-15.3,98.2,1,112.1,5.7v18.2C387.8,341.5,385.1,344.2,381.7,344.2z"/>
		<path class="st0" d="M440,61.1L293.2,18.3L146.3,61.1c-2.6,0.8-4.3,3.1-4.3,5.8s1.7,5,4.3,5.8L221,94.5l-6.9,57.3l9-4.9
			c0.5-0.3,50.8-26.8,120.3-3.1c0.8,6.4,6.2,11.3,12.7,11.3c7.1,0,12.8-5.7,12.8-12.8s-5.7-12.8-12.8-12.8c-3.8,0-7.1,1.6-9.5,4.2
			c-57.2-19.5-101.5-7.2-119.7-0.1l5.6-46.7l-68.3-19.9l128.8-37.6L422,66.9L346.4,89l0.5,8.6c-4.1,2.1-6.9,6.4-6.9,11.4
			c0,7.1,5.7,12.8,12.8,12.8c7.1,0,12.8-5.7,12.8-12.8c0-5.4-3.4-10-8.1-11.9l0-0.2L440,72.7c2.6-0.8,4.3-3.1,4.3-5.8
			S442.6,61.9,440,61.1z"/>
	</g>
	<g class="st1">
		<g class="st2">
			<path class="st3" d="M88,475.3H67.6l-3.9,9.4H53.3l19.6-43.9h10l19.6,43.9H91.9L88,475.3z M84.8,467.6l-7-16.8l-7,16.8H84.8z"/>
			<path class="st3" d="M107.1,440.8h10.2v43.9h-10.2V440.8z"/>
			<path class="st3" d="M179.5,476.6v8.2h-34v-43.9h33.2v8.2h-23.1v9.5H176v7.9h-20.4v10.2H179.5z"/>
			<path class="st3" d="M187.6,440.8h20c4.8,0,9,0.9,12.6,2.7c3.7,1.8,6.5,4.4,8.5,7.7c2,3.3,3,7.2,3,11.5c0,4.4-1,8.2-3,11.5
				c-2,3.3-4.9,5.9-8.5,7.7c-3.7,1.8-7.9,2.7-12.6,2.7h-20V440.8z M207,476.4c4.4,0,7.9-1.2,10.5-3.7c2.6-2.4,3.9-5.8,3.9-9.9
				c0-4.2-1.3-7.5-3.9-9.9c-2.6-2.4-6.1-3.7-10.5-3.7h-9.3v27.2H207z"/>
			<path class="st3" d="M244.3,480.3c-3.5-3.5-5.2-8.4-5.2-14.9v-24.6h10.2V465c0,7.9,3.3,11.8,9.8,11.8c3.2,0,5.6-1,7.3-2.9
				c1.7-1.9,2.5-4.9,2.5-8.9v-24.2h10v24.6c0,6.4-1.7,11.4-5.2,14.9c-3.5,3.5-8.4,5.2-14.7,5.2S247.8,483.8,244.3,480.3z"/>
			<path class="st3" d="M297.7,482.6c-3.6-1.9-6.5-4.6-8.5-8.1c-2.1-3.5-3.1-7.4-3.1-11.7c0-4.4,1-8.3,3.1-11.7
				c2.1-3.5,4.9-6.1,8.5-8.1c3.6-1.9,7.7-2.9,12.2-2.9c3.8,0,7.2,0.7,10.3,2c3.1,1.3,5.7,3.3,7.7,5.8l-6.5,6c-3-3.4-6.7-5.1-11-5.1
				c-2.7,0-5.1,0.6-7.3,1.8c-2.1,1.2-3.8,2.9-5,5c-1.2,2.1-1.8,4.6-1.8,7.3c0,2.7,0.6,5.1,1.8,7.3c1.2,2.1,2.9,3.8,5,5
				c2.1,1.2,4.6,1.8,7.3,1.8c4.4,0,8.1-1.7,11-5.2l6.5,6c-2.1,2.6-4.7,4.5-7.8,5.8c-3.1,1.3-6.5,2-10.4,2
				C305.4,485.5,301.3,484.5,297.7,482.6z"/>
			<path class="st3" d="M362.9,475.3h-20.4l-3.9,9.4h-10.4l19.6-43.9h10l19.6,43.9h-10.7L362.9,475.3z M359.7,467.6l-7-16.8l-7,16.8
				H359.7z"/>
			<path class="st3" d="M388.9,449.1h-14.1v-8.3h38.3v8.3h-14.1v35.6h-10.2V449.1z"/>
			<path class="st3" d="M418.6,440.8h10.2v43.9h-10.2V440.8z"/>
			<path class="st3" d="M448.1,482.5c-3.7-2-6.5-4.7-8.6-8.1c-2.1-3.5-3.1-7.3-3.1-11.6c0-4.3,1-8.2,3.1-11.6
				c2.1-3.5,4.9-6.2,8.6-8.1c3.7-2,7.8-2.9,12.3-2.9c4.6,0,8.7,1,12.3,2.9c3.6,2,6.5,4.7,8.6,8.1c2.1,3.5,3.1,7.3,3.1,11.6
				c0,4.3-1,8.2-3.1,11.6c-2.1,3.5-5,6.2-8.6,8.1c-3.6,2-7.7,2.9-12.3,2.9C455.9,485.5,451.8,484.5,448.1,482.5z M467.5,475
				c2.1-1.2,3.7-2.9,4.9-5c1.2-2.1,1.8-4.6,1.8-7.3c0-2.7-0.6-5.1-1.8-7.3c-1.2-2.1-2.8-3.8-4.9-5c-2.1-1.2-4.4-1.8-7-1.8
				c-2.6,0-4.9,0.6-7,1.8c-2.1,1.2-3.7,2.9-4.9,5c-1.2,2.1-1.8,4.6-1.8,7.3c0,2.7,0.6,5.1,1.8,7.3c1.2,2.1,2.8,3.8,4.9,5
				c2.1,1.2,4.4,1.8,7,1.8C463.1,476.8,465.4,476.2,467.5,475z"/>
			<path class="st3" d="M532.4,440.8v43.9h-8.3l-21.9-26.7v26.7h-10v-43.9h8.4l21.8,26.7v-26.7H532.4z"/>
		</g>
		<g class="st2">
			<path class="st3" d="M62.1,521.4v5.7h-2.3v-5.8l-6.6-10.8h2.5l5.3,8.8l5.3-8.8h2.4L62.1,521.4z"/>
			<path class="st3" d="M86.2,526.3c-1.3-0.7-2.4-1.8-3.2-3c-0.8-1.3-1.2-2.7-1.2-4.3c0-1.6,0.4-3,1.2-4.3c0.8-1.3,1.8-2.3,3.2-3.1
				c1.3-0.7,2.9-1.1,4.5-1.1c1.7,0,3.2,0.4,4.5,1.1c1.3,0.7,2.4,1.7,3.2,3c0.8,1.3,1.1,2.7,1.1,4.4c0,1.6-0.4,3.1-1.1,4.4
				c-0.8,1.3-1.8,2.3-3.2,3c-1.3,0.7-2.8,1.1-4.5,1.1C89.1,527.4,87.6,527,86.2,526.3z M94,524.4c1-0.6,1.7-1.3,2.3-2.3
				c0.6-1,0.8-2.1,0.8-3.3c0-1.2-0.3-2.3-0.8-3.3c-0.6-1-1.3-1.7-2.3-2.3c-1-0.6-2.1-0.8-3.3-0.8c-1.2,0-2.3,0.3-3.3,0.8
				c-1,0.6-1.8,1.3-2.3,2.3c-0.6,1-0.8,2.1-0.8,3.3c0,1.2,0.3,2.3,0.8,3.3c0.6,1,1.3,1.7,2.3,2.3c1,0.6,2.1,0.8,3.3,0.8
				C92,525.3,93.1,525,94,524.4z"/>
			<path class="st3" d="M117.7,525.5c-1.2-1.3-1.9-3.1-1.9-5.5v-9.4h2.4v9.4c0,3.6,1.6,5.3,4.7,5.3c1.5,0,2.7-0.4,3.5-1.3
				c0.8-0.9,1.2-2.2,1.2-4v-9.4h2.3v9.4c0,2.4-0.6,4.2-1.9,5.5c-1.2,1.3-3,1.9-5.2,1.9C120.7,527.4,118.9,526.7,117.7,525.5z"/>
			<path class="st3" d="M158.7,527.2l-3.6-5.1c-0.4,0-0.8,0-1,0H150v5.1h-2.4v-16.6h6.5c2.2,0,3.8,0.5,5.1,1.5
				c1.2,1,1.9,2.4,1.9,4.2c0,1.3-0.3,2.4-0.9,3.3c-0.6,0.9-1.5,1.6-2.7,2l3.9,5.6H158.7z M157.4,519.1c0.8-0.6,1.2-1.6,1.2-2.8
				c0-1.2-0.4-2.1-1.2-2.8c-0.8-0.6-1.9-1-3.4-1h-4v7.5h4C155.5,520.1,156.7,519.8,157.4,519.1z"/>
			<path class="st3" d="M200.2,512.6h-5.7v-2.1h13.7v2.1h-5.7v14.5h-2.4V512.6z"/>
			<path class="st3" d="M233.4,523h-8.8l-1.8,4.2h-2.4l7.5-16.6h2.3l7.5,16.6h-2.5L233.4,523z M232.5,521.1L229,513l-3.6,8.1H232.5z
				"/>
			<path class="st3" d="M264.3,518.8h2.3v6.5c-0.8,0.7-1.8,1.2-2.9,1.6c-1.1,0.4-2.2,0.5-3.4,0.5c-1.7,0-3.2-0.4-4.5-1.1
				c-1.3-0.7-2.4-1.7-3.2-3c-0.8-1.3-1.2-2.7-1.2-4.4c0-1.6,0.4-3.1,1.2-4.4c0.8-1.3,1.8-2.3,3.2-3c1.4-0.7,2.9-1.1,4.6-1.1
				c1.3,0,2.5,0.2,3.6,0.7c1.1,0.4,2,1.1,2.8,1.9l-1.5,1.5c-1.3-1.3-2.9-1.9-4.8-1.9c-1.3,0-2.4,0.3-3.4,0.8c-1,0.5-1.8,1.3-2.4,2.3
				c-0.6,1-0.9,2.1-0.9,3.3c0,1.2,0.3,2.3,0.9,3.3c0.6,1,1.4,1.7,2.4,2.3c1,0.6,2.1,0.8,3.4,0.8c1.5,0,2.8-0.4,3.9-1.1V518.8z"/>
			<path class="st3" d="M303.1,510.6h2.4v14.6h9v2.1h-11.4V510.6z"/>
			<path class="st3" d="M330,510.6h2.4v16.6H330V510.6z"/>
			<path class="st3" d="M364.5,510.6v16.6h-1.9l-10-12.4v12.4h-2.4v-16.6h1.9l10,12.4v-12.4H364.5z"/>
			<path class="st3" d="M394.3,525.1v2.1h-12.1v-16.6H394v2.1h-9.4v5.1h8.3v2h-8.3v5.4H394.3z"/>
			<path class="st3" d="M444.5,510.6v16.6h-2.4v-7.4h-9.5v7.4h-2.4v-16.6h2.4v7.1h9.5v-7.1H444.5z"/>
			<path class="st3" d="M474.3,525.1v2.1h-12.1v-16.6H474v2.1h-9.4v5.1h8.3v2h-8.3v5.4H474.3z"/>
			<path class="st3" d="M502.1,527.2l-3.6-5.1c-0.4,0-0.8,0-1,0h-4.1v5.1H491v-16.6h6.5c2.2,0,3.8,0.5,5.1,1.5
				c1.2,1,1.9,2.4,1.9,4.2c0,1.3-0.3,2.4-0.9,3.3c-0.6,0.9-1.5,1.6-2.7,2l3.9,5.6H502.1z M500.8,519.1c0.8-0.6,1.2-1.6,1.2-2.8
				c0-1.2-0.4-2.1-1.2-2.8c-0.8-0.6-1.9-1-3.4-1h-4v7.5h4C498.9,520.1,500.1,519.8,500.8,519.1z"/>
			<path class="st3" d="M533.1,525.1v2.1h-12.1v-16.6h11.7v2.1h-9.4v5.1h8.3v2h-8.3v5.4H533.1z"/>
		</g>
	</g>
</g>
<text transform="matrix(1 0 0 1 48 483.6533)"><tspan x="0" y="0" class="st4 st5">Oustad</tspan><tspan x="374.8" y="0" class="st0 st4 st5">IA</tspan></text>
<g>
	<text transform="matrix(1 0 0 1 53.2373 524.7422)" class="st6 st7">Ton coach scolaire intelligent</text>
</g>
</svg>
