<svg id="Layer_1" data-name="Layer 1" xmlns="http://www.w3.org/2000/svg" viewBox="0 0 1136.06 545.23"><defs><style>.cls-1{fill:#049669;}.cls-2{fill:#231f20;}</style></defs><title>oustadia-logo</title><path class="cls-1" d="M202.23,435.7a61.61,61.61,0,0,1,5.07-23.24,44.53,44.53,0,0,1,9-13.41c-15.5-2.4-35.93-8.31-52.26-22.56A15.19,15.19,0,0,1,151,374.61c-12.33,9.27-21.73,22.29-28,38.73a13.63,13.63,0,1,1-13.5-2.27c7.38-20.78,19.09-37,34.82-48.33,0-.23,0-.45,0-.67a15,15,0,0,1,2.22-7.88,91.88,91.88,0,0,1-9.44-31.72,13.64,13.64,0,1,1,13.45-.87A78.74,78.74,0,0,0,158,347a14.21,14.21,0,0,1,1.45-.07,15.06,15.06,0,0,1,9.34,3.25c12.79-4.44,27.26-6.69,43-6.69,25.87,0,49.3,6,62.27,10.05V336.29a17.16,17.16,0,0,1,8.19-14.69l5.25-3.25-21.93-24.61c-4.38-3.68-39.82-32.12-86.17-32.12a109.68,109.68,0,0,0-11.49.6c-34.4,3.63-66.21,23.49-94.56,59A13.63,13.63,0,1,1,61.29,314l.67,0c30.92-39.2,66.13-61.12,104.67-65.15a126.21,126.21,0,0,1,13.06-.67c35.49,0,64.84,15,80.83,25.27-1.1-10.81-5.09-27.49-18.59-39.54-11.67-10.42-28.53-15.7-50.1-15.7-3.87,0-7.94.17-12.11.51a13.64,13.64,0,1,1-13-17.71,13.53,13.53,0,0,1,10.07,4.46c5.18-.47,10.23-.71,15-.71,25,0,44.89,6.43,59.09,19.11,21.55,19.23,23.6,47,23.48,58a3.76,3.76,0,0,0,1,2.54l32.91,36.94-18.89,11.68a3.79,3.79,0,0,0-1.81,3.24v46.89a17.3,17.3,0,0,1-17.28,17.28H246.49c-.35,0-.93.07-1.72.11-29,2.22-29.09,33.66-29.08,35v1.83l-13.45.14Zm-28.48-68.65c21.61,18.21,52.62,20.19,65.09,20.19,1.66,0,3.25,0,4.73-.09.74-.06,1.55-.12,2.39-.15h24.3a3.83,3.83,0,0,0,3.82-3.82V367.73c-10.54-3.52-35.3-10.68-62.61-10.68a118.63,118.63,0,0,0-36.87,5.38A14.86,14.86,0,0,1,173.75,367.05Z"/><path class="cls-1" d="M246.83,204.33a13.63,13.63,0,0,1-13.34-10.84,163,163,0,0,0-51.68-8.6c-34.45,0-56.41,11.6-56.63,11.71l-11.44,6.21,6.55-54.74L53,128.41a7.4,7.4,0,0,1,0-14.2L188.73,74.57l135.78,39.64a7.4,7.4,0,0,1,0,14.2L252.3,149.5a13.64,13.64,0,1,1-16-.94l-.48-8.27,65-19L188.73,88.59,76.67,121.31l58.34,17-5,41.55a153,153,0,0,1,51.37-8.64,177,177,0,0,1,56.2,9.41,13.63,13.63,0,1,1,9.23,23.66Z"/><path class="cls-2" d="M381.18,243.39c0-31.1,25.49-56.35,56.91-56.35S495,212.29,495,243.39s-25.48,56.43-56.9,56.43S381.18,274.58,381.18,243.39Zm84.37,0c0-16.14-11.79-28.65-27.46-28.65s-27.54,12.51-27.54,28.65,11.87,28.73,27.54,28.73S465.55,259.46,465.55,243.39Z"/><path class="cls-2" d="M509.48,266.27V220c0-3.24,6.73-3.24,13.3-3.24s13.29,0,13.29,3.24v44.49c0,5.54,3.09,10.28,9.5,10.28,7.52,0,11.71-5.77,11.71-12.5V220c0-3.24,6.65-3.24,13.3-3.24s13.22,0,13.22,3.24v75.67c0,3.24-6.26,3.24-12.51,3.24s-12.5,0-12.5-3.24v-8.55c-5.15,7.12-11.8,12.66-21.69,12.66C520.56,299.74,509.48,287.16,509.48,266.27Z"/><path class="cls-2" d="M601.13,293.65c-1-.55-1.42-1.58-1.42-3,0-2.37,1.18-5.7,2.69-9.34,2-5,4-9,6.72-9a3.1,3.1,0,0,1,1.43.32c5.22,2.85,13.38,5.14,18.68,5.14,7.52,0,10-1.58,10-4.67,0-3.4-4.83-4.59-10.61-6-10.84-2.46-27.86-6-27.86-25.25,0-18.44,14.41-26,34.51-26,10,0,18.52,1.58,26.36,6.09a3,3,0,0,1,1.34,2.93c0,2.3-1.18,5.62-2.61,9.18-1.9,4.67-4.43,9.1-7,9.1a2.21,2.21,0,0,1-1.19-.31c-4.83-2.69-10.84-5.07-16-5.07-5.93,0-8.78,1.82-8.78,4.75s4.51,4,10.29,5.38c11.08,2.46,28.17,6.34,28.17,26.44.08,20.26-16.78,25.4-37.2,25.4C618.62,299.74,609.05,298.08,601.13,293.65Z"/><path class="cls-2" d="M688,268.24V240.46H676.4c-3.24,0-3.24-5.77-3.24-11.47s0-11.48,3.24-11.48H688V196.93c0-3.24,6.73-3.24,13.3-3.24s13.3,0,13.3,3.24v20.58h16.54c3.4,0,3.4,5.7,3.4,11.48s0,11.47-3.4,11.47H714.63v27.78c0,4,1.66,7.92,6.65,7.92A22.08,22.08,0,0,0,732,273.07a2.3,2.3,0,0,1,1.19-.31c2.37,0,4.11,3.95,5.78,8.62,1.1,2.93,2.53,7.13,2.53,10,0,1.34-.32,2.45-1.19,2.92-7,4-14.32,5.46-23.43,5.46C697.37,299.74,688,288.35,688,268.24Z"/><path class="cls-2" d="M746.13,277.82c0-14.8,12.74-23.5,30.71-27l11.55-2.21v-4c0-3.64-2.29-6.25-7.28-6.25-6.09,0-13.14,1.5-21.53,5.93a2.06,2.06,0,0,1-1,.24c-2.29,0-4.59-4.27-6.49-8.86-1.26-3.09-2.45-6-2.45-8.24a3.27,3.27,0,0,1,1.66-3.16c10.92-5.86,20.26-8.47,31.11-8.47,20,0,32.37,8.55,32.37,30.87v49c0,3.16-6.1,3.16-12.19,3.16s-12.35,0-12.35-3.16v-7c-4.59,6.65-11.08,11-21.84,11C756,299.74,746.13,292.7,746.13,277.82Zm42.26-8.55v-5l-9.26,1.9c-3.56.55-6.41,2.93-6.41,6.41,0,3,2.38,5.14,5.94,5.14C785.15,277.74,788.39,273.07,788.39,269.27Z"/><path class="cls-2" d="M828.84,257.8c0-23.11,13.45-42,33.63-42a25.75,25.75,0,0,1,21.29,11.4V182c0-3.24,6.57-3.24,13.22-3.24s13.22,0,13.22,3.24V295.71c0,3.16-6.25,3.16-12.43,3.16s-12.5,0-12.5-3.16v-8.47c-5.94,8.47-14.64,12.5-22.8,12.5C842.29,299.74,828.84,280.91,828.84,257.8Zm56.43,0c0-9.34-6.17-16.94-15-16.94-8.71,0-14.88,7.6-14.88,16.94s6.17,16.85,14.88,16.85C879.1,274.65,885.27,267.14,885.27,257.8Z"/><path class="cls-1" d="M934.1,295.55V191.08c0-3.17,6.73-3.25,13.62-3.25s13.53.08,13.53,3.25V295.55c0,3.24-6.73,3.32-13.53,3.32S934.1,298.79,934.1,295.55Z"/><path class="cls-1" d="M970.67,295.87a2.72,2.72,0,0,1,.31-1.19l50.82-106.29c.79-1.59,2.77-1.59,4.74-1.59s3.88,0,4.67,1.59l50.9,106.37a2.21,2.21,0,0,1,.31,1.11c0,2.85-6.88,3-13.69,3-7.68,0-15.27-.08-16.3-2.61l-5.62-13.85h-40.45l-5.7,13.85c-1.1,2.53-8.7,2.61-16.38,2.61C977.47,298.87,970.67,298.87,970.67,295.87Zm45.43-35.46h21.21l-10.61-24.69Z"/><path class="cls-2" d="M397.2,328.3H385.93v-6.09h29.24v6.09H403.9v29.45h-6.7Z"/><path class="cls-2" d="M430.81,332.11a13.73,13.73,0,0,1,5.43,1A12.5,12.5,0,0,1,440.4,336a12.92,12.92,0,0,1,2.67,4.19,13.69,13.69,0,0,1,.94,5.08,14.39,14.39,0,0,1-.92,5.15,12.12,12.12,0,0,1-2.61,4.19,12.31,12.31,0,0,1-4.14,2.82,15,15,0,0,1-11,0,12.31,12.31,0,0,1-4.14-2.82,11.78,11.78,0,0,1-2.59-4.19,14.82,14.82,0,0,1-.89-5.15,14.3,14.3,0,0,1,.91-5.08,12.79,12.79,0,0,1,2.62-4.19,12.28,12.28,0,0,1,4.11-2.84A13.59,13.59,0,0,1,430.81,332.11Zm.05,5.74a6.36,6.36,0,0,0-5.08,2.31,7.22,7.22,0,0,0-1.29,2.36,8.94,8.94,0,0,0,0,5.48,7.36,7.36,0,0,0,1.27,2.36,6.36,6.36,0,0,0,2.13,1.68,7.32,7.32,0,0,0,5.94,0,6.36,6.36,0,0,0,2.13-1.68,7.36,7.36,0,0,0,1.27-2.36,8.68,8.68,0,0,0,.43-2.74,7.94,7.94,0,0,0-.48-2.74,7.61,7.61,0,0,0-1.37-2.36,6.73,6.73,0,0,0-2.13-1.68A6.16,6.16,0,0,0,430.86,337.85Z"/><path class="cls-2" d="M467.67,357.75V344.5a7.38,7.38,0,0,0-1.55-4.8,5.47,5.47,0,0,0-4.5-1.9,6.08,6.08,0,0,0-2.64.55,6.39,6.39,0,0,0-2,1.53,7.07,7.07,0,0,0-1.3,2.23,8,8,0,0,0-.45,2.69v12.95h-6.15v-25h5.54l.4,3.2a11.4,11.4,0,0,1,3.86-2.95,11.2,11.2,0,0,1,4.37-.81,10.76,10.76,0,0,1,4.14.81,9.32,9.32,0,0,1,3.37,2.39,11.71,11.71,0,0,1,2.26,3.86,15.06,15.06,0,0,1,.84,5.23v13.3Z"/><path class="cls-2" d="M514,354.55a13.83,13.83,0,0,1-4.52,3.05,14.18,14.18,0,0,1-5.13.91,16,16,0,0,1-5.15-.81,11.9,11.9,0,0,1-4.22-2.44,11.54,11.54,0,0,1-2.87-4.11,14.63,14.63,0,0,1-1.06-5.79,14.78,14.78,0,0,1,1.06-5.84,11.81,11.81,0,0,1,2.87-4.13,11.53,11.53,0,0,1,4.22-2.47,16,16,0,0,1,5.15-.81,12.81,12.81,0,0,1,4.82.84,13.64,13.64,0,0,1,4.22,2.87l-3.91,4.11a7.45,7.45,0,0,0-2.41-1.5,7.53,7.53,0,0,0-2.62-.48,7.74,7.74,0,0,0-2.89.53,6.63,6.63,0,0,0-2.29,1.53,7,7,0,0,0-1.5,2.35,8.37,8.37,0,0,0-.53,3,8.08,8.08,0,0,0,.56,3.12,6.28,6.28,0,0,0,1.55,2.26,6.47,6.47,0,0,0,2.26,1.37,7.88,7.88,0,0,0,2.74.46,9.2,9.2,0,0,0,2.89-.46,6.35,6.35,0,0,0,2.59-1.62Z"/><path class="cls-2" d="M529.6,332.11a13.73,13.73,0,0,1,5.43,1A12.54,12.54,0,0,1,539.2,336a12.73,12.73,0,0,1,2.66,4.19,13.69,13.69,0,0,1,.94,5.08,14.38,14.38,0,0,1-.91,5.15,12.14,12.14,0,0,1-2.62,4.19,12.37,12.37,0,0,1-4.13,2.82,15,15,0,0,1-11,0A12.51,12.51,0,0,1,520,354.6a12.07,12.07,0,0,1-2.59-4.19,14.82,14.82,0,0,1-.89-5.15,14.09,14.09,0,0,1,.92-5.08,12.77,12.77,0,0,1,2.61-4.19,12.43,12.43,0,0,1,4.12-2.84A13.54,13.54,0,0,1,529.6,332.11Zm0,5.74a6.52,6.52,0,0,0-2.94.63,6.31,6.31,0,0,0-2.13,1.68,7.06,7.06,0,0,0-1.3,2.36,8.94,8.94,0,0,0,0,5.48,7.36,7.36,0,0,0,1.27,2.36,6.36,6.36,0,0,0,2.13,1.68,7.32,7.32,0,0,0,5.94,0,6.3,6.3,0,0,0,2.14-1.68A7.34,7.34,0,0,0,536,348a8.69,8.69,0,0,0,.44-2.74,7.72,7.72,0,0,0-.49-2.74,7.61,7.61,0,0,0-1.37-2.36,6.73,6.73,0,0,0-2.13-1.68A6.16,6.16,0,0,0,529.65,337.85Z"/><path class="cls-2" d="M567.63,332.72h5.94v25h-5.84l-.31-3.66a6.14,6.14,0,0,1-1.49,1.93,10.38,10.38,0,0,1-4.37,2.21,9.76,9.76,0,0,1-2.26.28,15.24,15.24,0,0,1-5.15-.84,11.06,11.06,0,0,1-4.09-2.51,11.55,11.55,0,0,1-2.69-4.16,16,16,0,0,1-1-5.79,14.81,14.81,0,0,1,1-5.71,11.69,11.69,0,0,1,2.77-4.11,11,11,0,0,1,4.14-2.47,15.83,15.83,0,0,1,5.12-.81,10.34,10.34,0,0,1,4.75,1.09,7.45,7.45,0,0,1,3.22,3ZM560,337.64a8.22,8.22,0,0,0-2.89.51,6.64,6.64,0,0,0-2.36,1.47,7.07,7.07,0,0,0-1.58,2.39,9.12,9.12,0,0,0,0,6.4,7.37,7.37,0,0,0,1.58,2.41,6.44,6.44,0,0,0,2.36,1.5,8.44,8.44,0,0,0,2.89.5,7,7,0,0,0,4.06-1.11,7.1,7.1,0,0,0,2.44-2.82,8.65,8.65,0,0,0,0-7.31,6.85,6.85,0,0,0-6.5-3.94Z"/><path class="cls-2" d="M601.74,354.55a13.63,13.63,0,0,1-4.52,3.05,14.09,14.09,0,0,1-5.12.91,16.12,16.12,0,0,1-5.16-.81,11.94,11.94,0,0,1-4.21-2.44,11.54,11.54,0,0,1-2.87-4.11,14.63,14.63,0,0,1-1.06-5.79,14.78,14.78,0,0,1,1.06-5.84,11.81,11.81,0,0,1,2.87-4.13,11.57,11.57,0,0,1,4.21-2.47,16.12,16.12,0,0,1,5.16-.81,12.81,12.81,0,0,1,4.82.84,13.49,13.49,0,0,1,4.21,2.87l-3.91,4.11a7.24,7.24,0,0,0-2.41-1.5,7.43,7.43,0,0,0-2.61-.48,7.79,7.79,0,0,0-2.9.53A6.5,6.5,0,0,0,587,340a7,7,0,0,0-1.5,2.35,8.37,8.37,0,0,0-.53,3,7.9,7.9,0,0,0,.56,3.12,6.28,6.28,0,0,0,1.55,2.26,6.47,6.47,0,0,0,2.26,1.37,7.88,7.88,0,0,0,2.74.46,9.24,9.24,0,0,0,2.89-.46,6.35,6.35,0,0,0,2.59-1.62Z"/><path class="cls-2" d="M612.15,322.21v13.71a8.7,8.7,0,0,1,3.68-3,11.16,11.16,0,0,1,4.14-.79,11.36,11.36,0,0,1,4.59.86,8.12,8.12,0,0,1,3.2,2.47,10.61,10.61,0,0,1,1.85,3.85,19.11,19.11,0,0,1,.61,5v13.4H624V344.4q0-3.45-1.6-5a5.72,5.72,0,0,0-4.09-1.52,5.76,5.76,0,0,0-4.46,2,6.81,6.81,0,0,0-1.27,2.19,7.51,7.51,0,0,0-.46,2.66v13H606V322.21Z"/><path class="cls-2" d="M664.59,339.37a7.8,7.8,0,0,0-2.87-1.73,10.84,10.84,0,0,0-3.32-.5q-4.57,0-4.57,2.48t4.67,2.74a33.13,33.13,0,0,1,3.68.44,10.68,10.68,0,0,1,3.45,1.19,7.34,7.34,0,0,1,2.57,2.39,7,7,0,0,1,1,4,7.45,7.45,0,0,1-.68,3.14,7.7,7.7,0,0,1-2,2.62,10,10,0,0,1-3.38,1.8,15.09,15.09,0,0,1-4.67.66,29.69,29.69,0,0,1-3-.15,13.54,13.54,0,0,1-2.91-.64,12.74,12.74,0,0,1-2.87-1.37,14.83,14.83,0,0,1-2.8-2.31l3-4.41a9.94,9.94,0,0,0,4.16,2.66,15.22,15.22,0,0,0,4.47.84,6.41,6.41,0,0,0,3.15-.66,2.25,2.25,0,0,0,1.37-2.08,2.21,2.21,0,0,0-1.12-2,8.51,8.51,0,0,0-3.86-.87,24.49,24.49,0,0,1-3.6-.58,11.76,11.76,0,0,1-3.32-1.32,7.59,7.59,0,0,1-2.47-2.31,6.21,6.21,0,0,1-1-3.55,6.43,6.43,0,0,1,1-3.68,7.93,7.93,0,0,1,2.57-2.42,11,11,0,0,1,3.4-1.29,18,18,0,0,1,3.58-.38,18.72,18.72,0,0,1,5.25.68,12.45,12.45,0,0,1,4.5,2.57Z"/><path class="cls-2" d="M695.56,354.55A13.63,13.63,0,0,1,691,357.6a14.09,14.09,0,0,1-5.12.91,16.12,16.12,0,0,1-5.16-.81,11.94,11.94,0,0,1-4.21-2.44,11.54,11.54,0,0,1-2.87-4.11,14.62,14.62,0,0,1-1.07-5.79,14.77,14.77,0,0,1,1.07-5.84,11.81,11.81,0,0,1,2.87-4.13,11.57,11.57,0,0,1,4.21-2.47,16.12,16.12,0,0,1,5.16-.81,12.84,12.84,0,0,1,4.82.84,13.49,13.49,0,0,1,4.21,2.87L691,339.93a7.34,7.34,0,0,0-2.41-1.5A7.43,7.43,0,0,0,686,338a7.79,7.79,0,0,0-2.9.53,6.5,6.5,0,0,0-2.28,1.53,7,7,0,0,0-1.5,2.35,8.37,8.37,0,0,0-.53,3,7.9,7.9,0,0,0,.56,3.12,6.26,6.26,0,0,0,1.54,2.26,6.56,6.56,0,0,0,2.26,1.37,7.94,7.94,0,0,0,2.75.46,9.24,9.24,0,0,0,2.89-.46,6.35,6.35,0,0,0,2.59-1.62Z"/><path class="cls-2" d="M711.2,332.11a13.76,13.76,0,0,1,5.43,1,12.6,12.6,0,0,1,4.16,2.84,12.92,12.92,0,0,1,2.67,4.19,13.89,13.89,0,0,1,.94,5.08,14.39,14.39,0,0,1-.92,5.15,12.27,12.27,0,0,1-2.61,4.19,12.41,12.41,0,0,1-4.14,2.82,15,15,0,0,1-11,0,12.31,12.31,0,0,1-4.14-2.82,11.78,11.78,0,0,1-2.59-4.19,14.82,14.82,0,0,1-.89-5.15,14.3,14.3,0,0,1,.91-5.08,12.63,12.63,0,0,1,2.62-4.19,12.28,12.28,0,0,1,4.11-2.84A13.59,13.59,0,0,1,711.2,332.11Zm0,5.74a6.32,6.32,0,0,0-5.08,2.31,7,7,0,0,0-1.29,2.36,8.94,8.94,0,0,0,0,5.48,7.18,7.18,0,0,0,1.27,2.36,6.26,6.26,0,0,0,2.13,1.68,7.32,7.32,0,0,0,5.94,0,6.36,6.36,0,0,0,2.13-1.68,7.36,7.36,0,0,0,1.27-2.36,8.68,8.68,0,0,0,.43-2.74,7.94,7.94,0,0,0-.48-2.74,7.61,7.61,0,0,0-1.37-2.36,6.73,6.73,0,0,0-2.13-1.68A6.16,6.16,0,0,0,711.25,337.85Z"/><path class="cls-2" d="M735.77,322.26v35.49h-6.14V322.26Z"/><path class="cls-2" d="M762.37,332.72h5.94v25h-5.84l-.3-3.66a6.17,6.17,0,0,1-1.5,1.93,9.85,9.85,0,0,1-2.06,1.37,10.15,10.15,0,0,1-2.31.84,9.61,9.61,0,0,1-2.25.28,15.3,15.3,0,0,1-5.16-.84,11.14,11.14,0,0,1-4.09-2.51,11.68,11.68,0,0,1-2.69-4.16,16,16,0,0,1-1-5.79,14.81,14.81,0,0,1,1-5.71,11.54,11.54,0,0,1,2.76-4.11,11.12,11.12,0,0,1,4.14-2.47,15.85,15.85,0,0,1,5.13-.81,10.3,10.3,0,0,1,4.74,1.09,7.48,7.48,0,0,1,3.23,3Zm-7.61,4.92a8.27,8.27,0,0,0-2.9.51,6.73,6.73,0,0,0-2.36,1.47,7.05,7.05,0,0,0-1.57,2.39,9,9,0,0,0,0,6.4,7.34,7.34,0,0,0,1.57,2.41,6.52,6.52,0,0,0,2.36,1.5,8.5,8.5,0,0,0,2.9.5,7.06,7.06,0,0,0,4.06-1.11,7.15,7.15,0,0,0,2.43-2.82,8.56,8.56,0,0,0,0-7.31,6.82,6.82,0,0,0-6.49-3.94Z"/><path class="cls-2" d="M774.45,325.66A3.26,3.26,0,0,1,775.6,323a3.92,3.92,0,0,1,5,0,3.78,3.78,0,0,1,0,5.41,4,4,0,0,1-5,0A3.24,3.24,0,0,1,774.45,325.66Zm6.76,7v25.13H775V332.62Z"/><path class="cls-2" d="M793.64,332.72l.46,2.89a6.91,6.91,0,0,1,1.52-1.82,6.53,6.53,0,0,1,1.78-1.07,7.76,7.76,0,0,1,1.88-.48,13.51,13.51,0,0,1,1.88-.13,10,10,0,0,1,3.68.69,8.39,8.39,0,0,1,2.77,1.64l-2.8,5.39a10.49,10.49,0,0,0-1.95-1.17,5.93,5.93,0,0,0-2.51-.46,8.17,8.17,0,0,0-2.34.33,5.63,5.63,0,0,0-2,1.09,5.24,5.24,0,0,0-1.39,2,7.68,7.68,0,0,0-.51,2.95v13.2h-6.19v-25Z"/><path class="cls-2" d="M815.83,347.54a5.65,5.65,0,0,0,2.21,3.84,8.28,8.28,0,0,0,5.25,1.49,12.37,12.37,0,0,0,3.66-.6,7.44,7.44,0,0,0,3-1.73l4,3.91a12.75,12.75,0,0,1-5,3,17.48,17.48,0,0,1-5.81,1,16.31,16.31,0,0,1-5.79-1,12.29,12.29,0,0,1-4.31-2.72,11.68,11.68,0,0,1-2.72-4.21,15.15,15.15,0,0,1-.94-5.46,14.3,14.3,0,0,1,.94-5.26,12.28,12.28,0,0,1,2.67-4.16,11.92,11.92,0,0,1,4.18-2.72,15.1,15.1,0,0,1,5.51-1,15.57,15.57,0,0,1,5.61,1,10.35,10.35,0,0,1,4.19,2.92,12.07,12.07,0,0,1,2.44,4.85,19.44,19.44,0,0,1,.4,6.75Zm13.6-5.12a5,5,0,0,0-2-3.66,7.58,7.58,0,0,0-4.46-1.22,8,8,0,0,0-4.45,1.22,6.28,6.28,0,0,0-2.56,3.66Z"/><path class="cls-2" d="M852.13,325.66a3.25,3.25,0,0,1,1.14-2.69,3.93,3.93,0,0,1,5,0,3.78,3.78,0,0,1,0,5.41,4,4,0,0,1-5,0A3.23,3.23,0,0,1,852.13,325.66Zm6.75,7v25.13h-6.19V332.62Z"/><path class="cls-2" d="M884.16,357.75V344.5a7.32,7.32,0,0,0-1.55-4.8,5.44,5.44,0,0,0-4.49-1.9,6.08,6.08,0,0,0-2.64.55,6.17,6.17,0,0,0-2,1.53,7.07,7.07,0,0,0-1.3,2.23,8,8,0,0,0-.46,2.69v12.95h-6.14v-25h5.53l.41,3.2a11.31,11.31,0,0,1,3.86-2.95,11.15,11.15,0,0,1,4.36-.81,10.68,10.68,0,0,1,4.14.81,9.27,9.27,0,0,1,3.38,2.39,11.71,11.71,0,0,1,2.26,3.86,15.06,15.06,0,0,1,.84,5.23v13.3Z"/><path class="cls-2" d="M905.69,325.66v7.21h6.9v5.33h-7v11a3.58,3.58,0,0,0,.89,2.66,3.16,3.16,0,0,0,2.36.89,5.72,5.72,0,0,0,1.49-.2,7.47,7.47,0,0,0,1.5-.56l1.73,5.28a12.51,12.51,0,0,1-2.52.79,18.16,18.16,0,0,1-2.61.28,8.75,8.75,0,0,1-6.55-2.11c-1.62-1.51-2.44-3.85-2.44-7v-11h-4.67v-5.33h4.67v-6.55Z"/><path class="cls-2" d="M922.7,347.54a5.64,5.64,0,0,0,2.2,3.84,8.29,8.29,0,0,0,5.26,1.49,12.26,12.26,0,0,0,3.65-.6,7.48,7.48,0,0,0,3.05-1.73l4,3.91a12.75,12.75,0,0,1-5,3,17.53,17.53,0,0,1-5.81,1,16.27,16.27,0,0,1-5.79-1,12.42,12.42,0,0,1-4.32-2.72,11.66,11.66,0,0,1-2.71-4.21,15.15,15.15,0,0,1-.94-5.46,14.3,14.3,0,0,1,.94-5.26,12.11,12.11,0,0,1,2.66-4.16,12,12,0,0,1,4.19-2.72,15.06,15.06,0,0,1,5.51-1,15.65,15.65,0,0,1,5.61,1,10.41,10.41,0,0,1,4.19,2.92,11.93,11.93,0,0,1,2.43,4.85,19.42,19.42,0,0,1,.41,6.75Zm13.6-5.12a5,5,0,0,0-2-3.66,7.59,7.59,0,0,0-4.47-1.22,7.94,7.94,0,0,0-4.44,1.22,6.28,6.28,0,0,0-2.56,3.66Z"/><path class="cls-2" d="M953.56,322.26v35.49h-6.14V322.26Z"/><path class="cls-2" d="M966.71,322.26v35.49h-6.14V322.26Z"/><path class="cls-2" d="M973,325.66a3.26,3.26,0,0,1,1.15-2.69,3.92,3.92,0,0,1,5,0,3.78,3.78,0,0,1,0,5.41,4,4,0,0,1-5,0A3.24,3.24,0,0,1,973,325.66Zm6.76,7v25.13h-6.2V332.62Z"/><path class="cls-2" d="M1007.93,330.18l4.57,3.45-3.15,3.66a12.08,12.08,0,0,1,2.26,3.73,11,11,0,0,1,.64,3.73,10,10,0,0,1-1.55,5.66,10.77,10.77,0,0,1-4.65,3.73,10.56,10.56,0,0,1,3.2,1.73,8.52,8.52,0,0,1,1.88,2.13,7.23,7.23,0,0,1,.89,2.24,10.35,10.35,0,0,1,.23,2,8.84,8.84,0,0,1-1.2,4.67,10.15,10.15,0,0,1-3.12,3.27,14.38,14.38,0,0,1-4.39,2,19,19,0,0,1-4.95.66,20,20,0,0,1-5.81-.79,11.73,11.73,0,0,1-4.29-2.29,9.63,9.63,0,0,1-2.62-3.63,11.27,11.27,0,0,1-.78-4.82h6.14a4,4,0,0,0,.48,2.34,5.23,5.23,0,0,0,1.63,1.72,8,8,0,0,0,2.41,1.1,10.69,10.69,0,0,0,2.84.38,12.46,12.46,0,0,0,2.56-.28,9,9,0,0,0,2.34-.84,5.09,5.09,0,0,0,1.68-1.42,3.38,3.38,0,0,0,.63-2,4.23,4.23,0,0,0-1.8-3.61,8.92,8.92,0,0,0-5.31-1.32,17.55,17.55,0,0,1-5.63-.86,12,12,0,0,1-4.32-2.49,11.21,11.21,0,0,1-2.76-4,13.4,13.4,0,0,1-1-5.28,12.4,12.4,0,0,1,1.16-5.53,12.24,12.24,0,0,1,3.07-4,12.8,12.8,0,0,1,4.37-2.38,16.48,16.48,0,0,1,5.1-.79,18,18,0,0,1,3.3.35,8.9,8.9,0,0,1,3.15,1.22Zm-9.24,7.62a9.49,9.49,0,0,0-2.89.43,7,7,0,0,0-2.39,1.29,6.33,6.33,0,0,0-1.62,2.19,7.11,7.11,0,0,0-.61,3,6.72,6.72,0,0,0,.61,2.92,6.58,6.58,0,0,0,1.62,2.18,6.94,6.94,0,0,0,2.39,1.35,9.21,9.21,0,0,0,2.89.46,8.24,8.24,0,0,0,2.87-.49,6.82,6.82,0,0,0,2.34-1.37,6.53,6.53,0,0,0,1.57-2.15,7.47,7.47,0,0,0,0-5.77,6.78,6.78,0,0,0-1.57-2.21,6.71,6.71,0,0,0-2.34-1.39A8.48,8.48,0,0,0,998.69,337.8Z"/><path class="cls-2" d="M1022.71,347.54a5.67,5.67,0,0,0,2.2,3.84,8.31,8.31,0,0,0,5.26,1.49,12.26,12.26,0,0,0,3.65-.6,7.41,7.41,0,0,0,3-1.73l4,3.91a12.75,12.75,0,0,1-4.95,3,17.53,17.53,0,0,1-5.81,1,16.27,16.27,0,0,1-5.79-1,12.42,12.42,0,0,1-4.32-2.72,11.66,11.66,0,0,1-2.71-4.21,15.15,15.15,0,0,1-.94-5.46,14.3,14.3,0,0,1,.94-5.26,12.11,12.11,0,0,1,2.66-4.16,12,12,0,0,1,4.19-2.72,15.06,15.06,0,0,1,5.51-1,15.61,15.61,0,0,1,5.61,1,10.35,10.35,0,0,1,4.19,2.92,12.07,12.07,0,0,1,2.44,4.85,19.69,19.69,0,0,1,.4,6.75Zm13.6-5.12a5,5,0,0,0-2-3.66,7.59,7.59,0,0,0-4.47-1.22,7.94,7.94,0,0,0-4.44,1.22,6.28,6.28,0,0,0-2.56,3.66Z"/><path class="cls-2" d="M1065.86,357.75V344.5a7.38,7.38,0,0,0-1.55-4.8,5.44,5.44,0,0,0-4.49-1.9,6.08,6.08,0,0,0-2.64.55,6.32,6.32,0,0,0-2,1.53,6.86,6.86,0,0,0-1.29,2.23,7.8,7.8,0,0,0-.46,2.69v12.95h-6.14v-25h5.53l.41,3.2a10,10,0,0,1,8.22-3.76,10.68,10.68,0,0,1,4.14.81,9.35,9.35,0,0,1,3.38,2.39,11.89,11.89,0,0,1,2.26,3.86,15.31,15.31,0,0,1,.83,5.23v13.3Z"/><path class="cls-2" d="M1087.38,325.66v7.21h6.91v5.33h-7v11a3.62,3.62,0,0,0,.89,2.66,3.16,3.16,0,0,0,2.36.89,5.79,5.79,0,0,0,1.5-.2,8,8,0,0,0,1.5-.56l1.72,5.28a12.43,12.43,0,0,1-2.51.79,18.48,18.48,0,0,1-2.61.28,8.72,8.72,0,0,1-6.55-2.11q-2.45-2.26-2.44-7v-11h-4.67v-5.33h4.67v-6.55Z"/></svg>