<svg id="Layer_1" data-name="Layer 1" xmlns="http://www.w3.org/2000/svg" viewBox="0 0 1136.06 1027.68"><defs><style>.cls-1{fill:#049669;}.cls-2{fill:#231f20;}</style></defs><title>oustadia-logo</title><path class="cls-1" d="M570.85,702.76a103.83,103.83,0,0,1,8.56-39.3,75.38,75.38,0,0,1,15.31-22.66c-26.2-4.06-60.73-14-88.35-38.13a25.59,25.59,0,0,1-22.17-3.19c-20.84,15.67-36.72,37.68-47.27,65.48a23,23,0,1,1-22.81-3.84C426.6,626,446.39,598.53,473,579.42c0-.39,0-.76,0-1.12A25.3,25.3,0,0,1,476.72,565c-8.22-15.75-13.58-33.77-16-53.63a23,23,0,1,1,22.73-1.46,133.29,133.29,0,0,0,12.61,42.94,22.47,22.47,0,0,1,2.45-.13,25.51,25.51,0,0,1,15.8,5.49c21.62-7.51,46.06-11.31,72.69-11.31,43.72,0,83.33,10.1,105.26,17V534.72a29,29,0,0,1,13.84-24.84L715,504.4,678,462.79c-7.41-6.21-67.31-54.29-145.67-54.29a183.82,183.82,0,0,0-19.4,1C454.72,415.64,401,449.22,353,509.31a22.85,22.85,0,0,1,2.65,10.7A23.05,23.05,0,1,1,332.62,497l1.12,0C386,430.72,445.53,393.67,510.67,386.87a213.48,213.48,0,0,1,22.07-1.15c60,0,109.61,25.32,136.64,42.73C667.52,410.17,660.77,382,638,361.6c-19.72-17.61-48.21-26.54-84.69-26.54-6.53,0-13.41.3-20.47.87a23.07,23.07,0,1,1-5-22.4c8.76-.79,17.3-1.2,25.4-1.2,42.29,0,75.89,10.87,99.89,32.3,36.42,32.52,39.88,79.46,39.68,98.13a6.37,6.37,0,0,0,1.63,4.3L750,509.5l-31.93,19.74a6.39,6.39,0,0,0-3.06,5.48V614a29.24,29.24,0,0,1-29.21,29.21H645.67c-.59.05-1.59.12-2.92.2-49,3.74-49.16,56.89-49.15,59.15l0,3.1-22.74.24Zm-48.14-116c36.53,30.77,88.95,34.14,110,34.14,2.81,0,5.5-.06,8-.17,1.25-.1,2.63-.19,4-.24h41.08A6.47,6.47,0,0,0,692.3,614V587.86c-17.82-6-59.68-18.05-105.83-18.05-23,0-43.9,3.06-62.33,9.1A25.06,25.06,0,0,1,522.71,586.71Z"/><path class="cls-1" d="M646.23,311.66a23,23,0,0,1-22.55-18.32,275.52,275.52,0,0,0-87.34-14.54c-58.24,0-95.36,19.6-95.73,19.8l-19.34,10.5,11.07-92.53L318.52,183.33a12.49,12.49,0,0,1,0-24L548,92.32l229.51,67a12.5,12.5,0,0,1,0,24L655.48,219a23.07,23.07,0,1,1-27.05-1.58l-.8-14,109.82-32.08L548,116,358.61,171.33l98.61,28.8-8.41,70.24a258.47,258.47,0,0,1,86.83-14.62,299.27,299.27,0,0,1,95,15.92,23,23,0,1,1,15.6,40Z"/><path class="cls-2" d="M181.54,828c0-34,27.88-61.65,62.25-61.65S306.05,794,306.05,828s-27.88,61.74-62.26,61.74S181.54,862.15,181.54,828Zm92.3,0c0-17.66-12.9-31.34-30-31.34S213.66,810.37,213.66,828s13,31.43,30.13,31.43S273.84,845.61,273.84,828Z"/><path class="cls-2" d="M321.89,853.05V802.4c0-3.55,7.36-3.55,14.55-3.55s14.55,0,14.55,3.55v48.66c0,6.06,3.37,11.26,10.39,11.26,8.22,0,12.81-6.32,12.81-13.68V802.4c0-3.55,7.27-3.55,14.55-3.55s14.46,0,14.46,3.55v82.78c0,3.55-6.84,3.55-13.68,3.55s-13.68,0-13.68-3.55v-9.35c-5.63,7.79-12.91,13.85-23.73,13.85C334,889.68,321.89,875.91,321.89,853.05Z"/><path class="cls-2" d="M422.16,883c-1.13-.6-1.56-1.73-1.56-3.29,0-2.6,1.3-6.23,2.95-10.21,2.16-5.46,4.41-9.88,7.35-9.88a3.4,3.4,0,0,1,1.56.35c5.72,3.12,14.64,5.63,20.44,5.63,8.22,0,11-1.73,11-5.11,0-3.72-5.28-5-11.6-6.58-11.86-2.68-30.48-6.58-30.48-27.62,0-20.17,15.76-28.4,37.75-28.4,10.91,0,20.26,1.73,28.84,6.67,1,.6,1.47,1.64,1.47,3.2,0,2.51-1.3,6.15-2.86,10-2.08,5.11-4.85,10-7.7,10a2.51,2.51,0,0,1-1.3-.34c-5.28-2.95-11.87-5.55-17.49-5.55-6.5,0-9.61,2-9.61,5.2s4.93,4.41,11.25,5.89c12.12,2.68,30.83,6.92,30.83,28.92.08,22.16-18.36,27.79-40.7,27.79C441.29,889.68,430.82,887.86,422.16,883Z"/><path class="cls-2" d="M517.23,855.22V824.83H504.5c-3.55,0-3.55-6.32-3.55-12.56s0-12.55,3.55-12.55h12.73V777.21c0-3.55,7.36-3.55,14.55-3.55s14.54,0,14.54,3.55v22.51h18.1c3.72,0,3.72,6.23,3.72,12.55s0,12.56-3.72,12.56h-18.1v30.39c0,4.41,1.82,8.66,7.28,8.66a24.15,24.15,0,0,0,11.68-3.38,2.47,2.47,0,0,1,1.3-.35c2.6,0,4.51,4.33,6.32,9.44,1.22,3.21,2.77,7.79,2.77,10.91,0,1.47-.34,2.69-1.29,3.21-7.62,4.32-15.68,6-25.63,6C527.45,889.68,517.23,877.21,517.23,855.22Z"/><path class="cls-2" d="M580.78,865.7c0-16.2,13.94-25.72,33.6-29.53L627,833.75v-4.33c0-4-2.51-6.84-8-6.84-6.66,0-14.37,1.64-23.55,6.49a2.32,2.32,0,0,1-1,.26c-2.51,0-5-4.68-7.1-9.7-1.38-3.37-2.68-6.58-2.68-9a3.59,3.59,0,0,1,1.82-3.47c12-6.4,22.16-9.26,34-9.26,21.9,0,35.41,9.35,35.41,33.77v53.59c0,3.47-6.67,3.47-13.34,3.47s-13.5,0-13.5-3.47v-7.62c-5,7.28-12.12,12-23.9,12C591.61,889.68,580.78,882,580.78,865.7ZM627,856.34v-5.45L616.89,853c-3.9.6-7,3.2-7,7,0,3.29,2.59,5.63,6.49,5.63C623.47,865.61,627,860.5,627,856.34Z"/><path class="cls-2" d="M671.27,843.79c0-25.28,14.72-45.89,36.79-45.89a28.17,28.17,0,0,1,23.29,12.47V760.84c0-3.55,7.19-3.55,14.46-3.55s14.46,0,14.46,3.55V885.26c0,3.47-6.84,3.47-13.59,3.47s-13.68,0-13.68-3.47V876c-6.49,9.26-16,13.68-24.94,13.68C686,889.68,671.27,869.07,671.27,843.79Zm61.73,0c0-10.22-6.75-18.53-16.45-18.53-9.53,0-16.28,8.31-16.28,18.53s6.75,18.44,16.28,18.44C726.25,862.23,733,854,733,843.79Z"/><path class="cls-1" d="M786.42,885.09V770.8c0-3.46,7.36-3.55,14.9-3.55s14.8.09,14.8,3.55V885.09c0,3.55-7.36,3.64-14.8,3.64S786.42,888.64,786.42,885.09Z"/><path class="cls-1" d="M826.43,885.44a2.88,2.88,0,0,1,.34-1.3l55.59-116.28c.86-1.74,3-1.74,5.19-1.74s4.25,0,5.11,1.74l55.68,116.36a2.39,2.39,0,0,1,.34,1.22c0,3.11-7.53,3.29-15,3.29-8.39,0-16.71-.09-17.83-2.86l-6.15-15.15H865.47l-6.23,15.15c-1.21,2.77-9.52,2.86-17.92,2.86C833.87,888.73,826.43,888.73,826.43,885.44Zm49.69-38.79h23.21l-11.6-27Z"/><path class="cls-2" d="M199.06,920.92H186.73v-6.66h32v6.66H206.4v32.21h-7.34Z"/><path class="cls-2" d="M235.83,925.09a15.12,15.12,0,0,1,5.94,1.13,13.72,13.72,0,0,1,4.56,3.11,13.91,13.91,0,0,1,2.91,4.59,14.91,14.91,0,0,1,1,5.55,15.72,15.72,0,0,1-1,5.64,13.19,13.19,0,0,1-7.39,7.66,16.33,16.33,0,0,1-12,0,13.47,13.47,0,0,1-4.53-3.08,13.13,13.13,0,0,1-2.83-4.58,16.15,16.15,0,0,1-1-5.64,15.31,15.31,0,0,1,1-5.55,13.78,13.78,0,0,1,2.86-4.59,13.47,13.47,0,0,1,4.5-3.11A14.9,14.9,0,0,1,235.83,925.09Zm.06,6.27a7,7,0,0,0-3.22.7,7.06,7.06,0,0,0-2.34,1.83,7.72,7.72,0,0,0-1.41,2.58,9.62,9.62,0,0,0,0,6,8,8,0,0,0,1.38,2.58,6.92,6.92,0,0,0,2.34,1.84,8,8,0,0,0,6.49,0,6.82,6.82,0,0,0,2.34-1.84,8.24,8.24,0,0,0,1.39-2.58,9.71,9.71,0,0,0,.47-3,8.78,8.78,0,0,0-.53-3,8.32,8.32,0,0,0-1.5-2.58,7.45,7.45,0,0,0-2.33-1.83A6.62,6.62,0,0,0,235.89,931.36Z"/><path class="cls-2" d="M276.15,953.13V938.64a8,8,0,0,0-1.69-5.25,6,6,0,0,0-4.92-2.08,6.62,6.62,0,0,0-2.89.61,6.76,6.76,0,0,0-2.19,1.66A7.83,7.83,0,0,0,263,936a8.69,8.69,0,0,0-.5,2.94v14.16h-6.72V925.75h6.06l.44,3.5a12.46,12.46,0,0,1,4.22-3.22,12.27,12.27,0,0,1,4.78-.89,11.76,11.76,0,0,1,4.53.89,10.19,10.19,0,0,1,3.69,2.61,12.78,12.78,0,0,1,2.47,4.22,16.62,16.62,0,0,1,.92,5.72v14.55Z"/><path class="cls-2" d="M326.8,949.64a15.06,15.06,0,0,1-4.94,3.33,15.38,15.38,0,0,1-5.61,1,17.63,17.63,0,0,1-5.64-.89,12.93,12.93,0,0,1-4.61-2.67,12.52,12.52,0,0,1-3.13-4.5,15.89,15.89,0,0,1-1.17-6.33,16.12,16.12,0,0,1,1.17-6.39,12.55,12.55,0,0,1,7.74-7.22,17.63,17.63,0,0,1,5.64-.88,14.11,14.11,0,0,1,5.28.91,15.06,15.06,0,0,1,4.61,3.14l-4.28,4.5a8.12,8.12,0,0,0-5.5-2.17,8.31,8.31,0,0,0-3.16.59,7.15,7.15,0,0,0-2.5,1.66,7.63,7.63,0,0,0-1.64,2.59,8.92,8.92,0,0,0-.59,3.27,8.81,8.81,0,0,0,.62,3.42,6.88,6.88,0,0,0,1.69,2.47,7.13,7.13,0,0,0,2.47,1.5,8.91,8.91,0,0,0,3,.5,10.44,10.44,0,0,0,3.17-.5,7,7,0,0,0,2.83-1.78Z"/><path class="cls-2" d="M343.91,925.09a15.15,15.15,0,0,1,5.94,1.13,13.72,13.72,0,0,1,4.56,3.11,14.07,14.07,0,0,1,2.91,4.59,14.91,14.91,0,0,1,1,5.55,15.72,15.72,0,0,1-1,5.64,13.19,13.19,0,0,1-7.39,7.66,16.33,16.33,0,0,1-12,0,13.47,13.47,0,0,1-4.53-3.08,13,13,0,0,1-2.83-4.58,16.15,16.15,0,0,1-1-5.64,15.52,15.52,0,0,1,1-5.55,13.81,13.81,0,0,1,2.87-4.59,13.53,13.53,0,0,1,4.49-3.11A15,15,0,0,1,343.91,925.09Zm0,6.27a7,7,0,0,0-3.22.7,7.13,7.13,0,0,0-2.33,1.83,7.92,7.92,0,0,0-1.42,2.58,9.81,9.81,0,0,0,0,6,8.24,8.24,0,0,0,1.39,2.58,6.82,6.82,0,0,0,2.34,1.84,8,8,0,0,0,6.49,0,6.82,6.82,0,0,0,2.34-1.84,8.24,8.24,0,0,0,1.39-2.58,9.71,9.71,0,0,0,.47-3,8.78,8.78,0,0,0-.53-3,8.32,8.32,0,0,0-1.5-2.58,7.57,7.57,0,0,0-2.33-1.83A6.63,6.63,0,0,0,344,931.36Z"/><path class="cls-2" d="M385.51,925.75H392v27.38h-6.39l-.33-4a6.94,6.94,0,0,1-1.64,2.12,10.85,10.85,0,0,1-2.25,1.49,11.3,11.3,0,0,1-2.53.92,11.05,11.05,0,0,1-2.47.31,16.76,16.76,0,0,1-5.64-.92,12.21,12.21,0,0,1-4.47-2.75,12.51,12.51,0,0,1-2.94-4.55,17.35,17.35,0,0,1-1.06-6.33,16.29,16.29,0,0,1,1.11-6.25,12.67,12.67,0,0,1,3-4.5A12.48,12.48,0,0,1,371,926a17.36,17.36,0,0,1,5.61-.88,11.32,11.32,0,0,1,5.19,1.19,8.21,8.21,0,0,1,3.53,3.25Zm-8.33,5.39a9.08,9.08,0,0,0-3.17.56,7.14,7.14,0,0,0-2.58,1.61,7.52,7.52,0,0,0-1.72,2.61,9.89,9.89,0,0,0,0,7,7.9,7.9,0,0,0,1.72,2.63,7,7,0,0,0,2.58,1.64,9.08,9.08,0,0,0,3.17.56,7.71,7.71,0,0,0,4.44-1.22,7.92,7.92,0,0,0,2.67-3.09,9.53,9.53,0,0,0,0-8,7.9,7.9,0,0,0-2.67-3.08A7.71,7.71,0,0,0,377.18,931.14Z"/><path class="cls-2" d="M422.83,949.64a15.06,15.06,0,0,1-4.94,3.33,15.46,15.46,0,0,1-5.61,1,17.63,17.63,0,0,1-5.64-.89,12.84,12.84,0,0,1-4.61-2.67,12.55,12.55,0,0,1-3.14-4.5,15.89,15.89,0,0,1-1.16-6.33,16.13,16.13,0,0,1,1.16-6.39,12.6,12.6,0,0,1,7.75-7.22,17.63,17.63,0,0,1,5.64-.88,14.05,14.05,0,0,1,5.27.91,14.83,14.83,0,0,1,4.61,3.14l-4.27,4.5a8.12,8.12,0,0,0-5.5-2.17,8.36,8.36,0,0,0-3.17.59,7.34,7.34,0,0,0-2.5,1.66,7.78,7.78,0,0,0-1.64,2.59,9.13,9.13,0,0,0-.58,3.27,8.81,8.81,0,0,0,.61,3.42,6.9,6.9,0,0,0,1.7,2.47,7,7,0,0,0,2.47,1.5,8.82,8.82,0,0,0,3,.5,10.33,10.33,0,0,0,3.16-.5,7.08,7.08,0,0,0,2.84-1.78Z"/><path class="cls-2" d="M434.21,914.26v15a9.74,9.74,0,0,1,4-3.25,13,13,0,0,1,9.55.09,8.79,8.79,0,0,1,3.5,2.69,11.68,11.68,0,0,1,2,4.22,21.18,21.18,0,0,1,.67,5.47v14.66h-6.78v-14.6c0-2.52-.58-4.33-1.75-5.45a6.21,6.21,0,0,0-4.47-1.66,6.39,6.39,0,0,0-2.75.58,6.53,6.53,0,0,0-2.14,1.61,7.86,7.86,0,0,0-1.39,2.39,8.49,8.49,0,0,0-.5,2.92v14.21h-6.77V914.26Z"/><path class="cls-2" d="M491.59,933a8.57,8.57,0,0,0-3.14-1.89,11.61,11.61,0,0,0-3.64-.55c-3.33,0-5,.9-5,2.72s1.7,2.77,5.11,3a34.65,34.65,0,0,1,4,.47,11.77,11.77,0,0,1,3.77,1.3,8.06,8.06,0,0,1,2.81,2.61,7.7,7.7,0,0,1,1.11,4.34,8,8,0,0,1-.75,3.44,8.4,8.4,0,0,1-2.22,2.86,10.79,10.79,0,0,1-3.69,2,16.64,16.64,0,0,1-5.11.72,32,32,0,0,1-3.28-.16,14.81,14.81,0,0,1-3.19-.7,14.28,14.28,0,0,1-3.14-1.5,16.15,16.15,0,0,1-3.06-2.53l3.33-4.83a11,11,0,0,0,4.56,2.92,17.24,17.24,0,0,0,4.89.92,7,7,0,0,0,3.44-.73,2.5,2.5,0,0,0,.28-4.44,9.3,9.3,0,0,0-4.22-.94,29.49,29.49,0,0,1-4-.64,13,13,0,0,1-3.63-1.45,8.25,8.25,0,0,1-2.7-2.52,6.82,6.82,0,0,1-1.05-3.89,7,7,0,0,1,1.11-4,8.72,8.72,0,0,1,2.8-2.64,12,12,0,0,1,3.72-1.41,19.31,19.31,0,0,1,3.92-.42,20.24,20.24,0,0,1,5.75.75,13.46,13.46,0,0,1,4.91,2.81Z"/><path class="cls-2" d="M525.46,949.64a15.06,15.06,0,0,1-4.94,3.33,15.38,15.38,0,0,1-5.61,1,17.63,17.63,0,0,1-5.64-.89,12.88,12.88,0,0,1-4.6-2.67,12.42,12.42,0,0,1-3.14-4.5,15.89,15.89,0,0,1-1.17-6.33,16.12,16.12,0,0,1,1.17-6.39,12.77,12.77,0,0,1,3.14-4.52,13,13,0,0,1,4.6-2.7,17.63,17.63,0,0,1,5.64-.88,14.11,14.11,0,0,1,5.28.91,15,15,0,0,1,4.61,3.14l-4.28,4.5a8,8,0,0,0-2.64-1.64,8.13,8.13,0,0,0-2.86-.53,8.35,8.35,0,0,0-3.16.59,7.15,7.15,0,0,0-2.5,1.66,7.63,7.63,0,0,0-1.64,2.59,8.92,8.92,0,0,0-.58,3.27,8.81,8.81,0,0,0,.61,3.42,6.88,6.88,0,0,0,1.69,2.47,7.13,7.13,0,0,0,2.47,1.5,8.91,8.91,0,0,0,3,.5,10.4,10.4,0,0,0,3.17-.5,7,7,0,0,0,2.83-1.78Z"/><path class="cls-2" d="M542.57,925.09a15.08,15.08,0,0,1,5.94,1.13,13.72,13.72,0,0,1,4.56,3.11,13.91,13.91,0,0,1,2.91,4.59,14.91,14.91,0,0,1,1,5.55,15.72,15.72,0,0,1-1,5.64,13.19,13.19,0,0,1-7.39,7.66,16.33,16.33,0,0,1-12,0,13.47,13.47,0,0,1-4.53-3.08,13.13,13.13,0,0,1-2.83-4.58,16.15,16.15,0,0,1-1-5.64,15.31,15.31,0,0,1,1-5.55,13.78,13.78,0,0,1,2.86-4.59,13.47,13.47,0,0,1,4.5-3.11A14.9,14.9,0,0,1,542.57,925.09Zm.06,6.27a7,7,0,0,0-3.22.7,7.06,7.06,0,0,0-2.34,1.83,7.72,7.72,0,0,0-1.41,2.58,9.61,9.61,0,0,0,0,6,8,8,0,0,0,1.38,2.58,6.92,6.92,0,0,0,2.34,1.84,8,8,0,0,0,6.5,0,6.88,6.88,0,0,0,2.33-1.84,8.24,8.24,0,0,0,1.39-2.58,9.71,9.71,0,0,0,.47-3,8.78,8.78,0,0,0-.53-3,8.32,8.32,0,0,0-1.5-2.58,7.45,7.45,0,0,0-2.33-1.83A6.62,6.62,0,0,0,542.63,931.36Z"/><path class="cls-2" d="M569.45,914.31v38.82h-6.72V914.31Z"/><path class="cls-2" d="M598.55,925.75h6.5v27.38h-6.39l-.33-4a6.79,6.79,0,0,1-1.64,2.12,10.34,10.34,0,0,1-2.25,1.49,11.5,11.5,0,0,1-5,1.23,16.75,16.75,0,0,1-5.63-.92,12.13,12.13,0,0,1-4.47-2.75,12.66,12.66,0,0,1-3-4.55,17.57,17.57,0,0,1-1-6.33,16.29,16.29,0,0,1,1.11-6.25,12.67,12.67,0,0,1,3-4.5A12.36,12.36,0,0,1,584,926a17.36,17.36,0,0,1,5.61-.88,11.26,11.26,0,0,1,5.19,1.19,8.16,8.16,0,0,1,3.53,3.25Zm-8.33,5.39a9,9,0,0,0-3.16.56,7.27,7.27,0,0,0-2.59,1.61,7.66,7.66,0,0,0-1.72,2.61,9.89,9.89,0,0,0,0,7,8.06,8.06,0,0,0,1.72,2.63,7.07,7.07,0,0,0,2.59,1.64,9,9,0,0,0,3.16.56,7.67,7.67,0,0,0,4.44-1.22,7.76,7.76,0,0,0,2.67-3.09,9.43,9.43,0,0,0,0-8,7.49,7.49,0,0,0-7.11-4.3Z"/><path class="cls-2" d="M611.77,918a3.56,3.56,0,0,1,1.25-2.94,4.28,4.28,0,0,1,5.5,0,3.56,3.56,0,0,1,1.25,2.94,3.52,3.52,0,0,1-1.25,3,4.35,4.35,0,0,1-5.5,0A3.52,3.52,0,0,1,611.77,918Zm7.39,7.61v27.49h-6.78V925.64Z"/><path class="cls-2" d="M632.76,925.75l.51,3.17a7.2,7.2,0,0,1,1.66-2,7.12,7.12,0,0,1,2-1.17,8.57,8.57,0,0,1,2-.52,14.56,14.56,0,0,1,2.06-.14,11,11,0,0,1,4,.75,9.28,9.28,0,0,1,3,1.8L645,933.53a11.91,11.91,0,0,0-2.13-1.28,6.66,6.66,0,0,0-2.75-.5,9,9,0,0,0-2.56.36,5.81,5.81,0,0,0-2.19,1.2,5.57,5.57,0,0,0-1.53,2.16,8.41,8.41,0,0,0-.55,3.22v14.44h-6.78V925.75Z"/><path class="cls-2" d="M657,942a6.15,6.15,0,0,0,2.41,4.19,9,9,0,0,0,5.75,1.64,13.43,13.43,0,0,0,4-.66,8.17,8.17,0,0,0,3.33-1.89l4.33,4.27a13.93,13.93,0,0,1-5.41,3.34,19.28,19.28,0,0,1-6.36,1.11,17.58,17.58,0,0,1-6.33-1.06,13.28,13.28,0,0,1-4.72-3,12.79,12.79,0,0,1-3-4.61,16.69,16.69,0,0,1-1-6,15.83,15.83,0,0,1,1-5.75,13.32,13.32,0,0,1,2.92-4.55,13,13,0,0,1,4.58-3,16.31,16.31,0,0,1,6-1.06,16.81,16.81,0,0,1,6.13,1.06,11.17,11.17,0,0,1,4.59,3.19,13.12,13.12,0,0,1,2.66,5.3,21.29,21.29,0,0,1,.45,7.39Zm14.88-5.61a5.44,5.44,0,0,0-2.22-4,8.29,8.29,0,0,0-4.89-1.33,8.63,8.63,0,0,0-4.86,1.33,6.85,6.85,0,0,0-2.8,4Z"/><path class="cls-2" d="M696.75,918a3.53,3.53,0,0,1,1.25-2.94,4.27,4.27,0,0,1,5.49,0,3.53,3.53,0,0,1,1.25,2.94,3.49,3.49,0,0,1-1.25,3,4.33,4.33,0,0,1-5.49,0A3.49,3.49,0,0,1,696.75,918Zm7.38,7.61v27.49h-6.77V925.64Z"/><path class="cls-2" d="M731.79,953.13V938.64a8,8,0,0,0-1.69-5.25,6,6,0,0,0-4.92-2.08,6.59,6.59,0,0,0-2.89.61,6.76,6.76,0,0,0-2.19,1.66,7.83,7.83,0,0,0-1.42,2.45,8.69,8.69,0,0,0-.5,2.94v14.16h-6.72V925.75h6.06l.44,3.5a11,11,0,0,1,9-4.11,11.68,11.68,0,0,1,4.52.89,10.14,10.14,0,0,1,3.7,2.61,13,13,0,0,1,2.47,4.22,16.62,16.62,0,0,1,.92,5.72v14.55Z"/><path class="cls-2" d="M755.34,918v7.89h7.55v5.83h-7.61v12a4,4,0,0,0,1,2.92,3.49,3.49,0,0,0,2.59,1,6.51,6.51,0,0,0,1.64-.22,8.16,8.16,0,0,0,1.63-.61l1.89,5.77a13.77,13.77,0,0,1-2.75.87,20.1,20.1,0,0,1-2.86.3,9.59,9.59,0,0,1-7.16-2.3q-2.67-2.47-2.67-7.7v-12h-5.11v-5.83h5.11v-7.17Z"/><path class="cls-2" d="M773.94,942a6.2,6.2,0,0,0,2.42,4.19,9,9,0,0,0,5.75,1.64,13.43,13.43,0,0,0,4-.66,8.17,8.17,0,0,0,3.33-1.89l4.33,4.27a13.93,13.93,0,0,1-5.41,3.34A19.28,19.28,0,0,1,782,954a17.58,17.58,0,0,1-6.33-1.06,13.32,13.32,0,0,1-4.73-3,12.9,12.9,0,0,1-3-4.61,16.69,16.69,0,0,1-1-6,15.83,15.83,0,0,1,1-5.75,13.32,13.32,0,0,1,2.92-4.55,12.87,12.87,0,0,1,4.58-3,16.31,16.31,0,0,1,6-1.06,16.81,16.81,0,0,1,6.13,1.06,11.17,11.17,0,0,1,4.59,3.19,13.12,13.12,0,0,1,2.66,5.3,21.29,21.29,0,0,1,.45,7.39Zm14.89-5.61a5.44,5.44,0,0,0-2.22-4,8.29,8.29,0,0,0-4.89-1.33,8.63,8.63,0,0,0-4.86,1.33,6.85,6.85,0,0,0-2.8,4Z"/><path class="cls-2" d="M807.71,914.31v38.82H801V914.31Z"/><path class="cls-2" d="M822.1,914.31v38.82h-6.72V914.31Z"/><path class="cls-2" d="M829,918a3.56,3.56,0,0,1,1.25-2.94,4.28,4.28,0,0,1,5.5,0A3.56,3.56,0,0,1,837,918a3.52,3.52,0,0,1-1.25,3,4.35,4.35,0,0,1-5.5,0A3.52,3.52,0,0,1,829,918Zm7.39,7.61v27.49h-6.78V925.64Z"/><path class="cls-2" d="M867.19,923l5,3.77-3.44,4a13.48,13.48,0,0,1,2.47,4.08,12.33,12.33,0,0,1,.69,4.09,10.87,10.87,0,0,1-1.69,6.19,11.92,11.92,0,0,1-5.08,4.08,11.62,11.62,0,0,1,3.5,1.89,9.31,9.31,0,0,1,2.05,2.33,7.83,7.83,0,0,1,1,2.45,10.85,10.85,0,0,1,.25,2.22,9.73,9.73,0,0,1-1.3,5.11,11.35,11.35,0,0,1-3.42,3.58,16.11,16.11,0,0,1-4.8,2.14,20.92,20.92,0,0,1-5.42.72,21.8,21.8,0,0,1-6.36-.86,12.89,12.89,0,0,1-4.69-2.5,10.59,10.59,0,0,1-2.86-4,12.44,12.44,0,0,1-.86-5.28h6.72a4.36,4.36,0,0,0,.53,2.56,5.59,5.59,0,0,0,1.78,1.88,8.7,8.7,0,0,0,2.63,1.2,11.5,11.5,0,0,0,3.11.42,13.59,13.59,0,0,0,2.81-.31,9.51,9.51,0,0,0,2.55-.92,5.38,5.38,0,0,0,1.84-1.55,3.66,3.66,0,0,0,.69-2.22,4.65,4.65,0,0,0-2-4,9.8,9.8,0,0,0-5.81-1.44,19.05,19.05,0,0,1-6.16-.94A13.09,13.09,0,0,1,846.2,949a12.09,12.09,0,0,1-3-4.33,14.69,14.69,0,0,1-1.08-5.77,13.51,13.51,0,0,1,1.28-6.06,13.16,13.16,0,0,1,3.36-4.36,14.1,14.1,0,0,1,4.77-2.61,18.38,18.38,0,0,1,5.58-.86,19,19,0,0,1,3.61.39,9.53,9.53,0,0,1,3.45,1.33Zm-10.11,8.33a10.29,10.29,0,0,0-3.16.47,7.47,7.47,0,0,0-2.61,1.41,6.93,6.93,0,0,0-1.78,2.39,8,8,0,0,0-.67,3.34,7.46,7.46,0,0,0,.67,3.19,7.23,7.23,0,0,0,1.78,2.39,7.43,7.43,0,0,0,2.61,1.47,10,10,0,0,0,3.16.5,9.24,9.24,0,0,0,3.14-.53,7.59,7.59,0,0,0,2.56-1.5,7.19,7.19,0,0,0,1.72-2.36,8.07,8.07,0,0,0,0-6.3,7.44,7.44,0,0,0-1.72-2.42,7.66,7.66,0,0,0-2.56-1.53A9.24,9.24,0,0,0,857.08,931.31Z"/><path class="cls-2" d="M883.36,942a6.15,6.15,0,0,0,2.41,4.19,9,9,0,0,0,5.75,1.64,13.43,13.43,0,0,0,4-.66,8.17,8.17,0,0,0,3.33-1.89l4.33,4.27a13.93,13.93,0,0,1-5.41,3.34,19.28,19.28,0,0,1-6.36,1.11,17.58,17.58,0,0,1-6.33-1.06,13.32,13.32,0,0,1-4.73-3,12.9,12.9,0,0,1-3-4.61,16.69,16.69,0,0,1-1-6,15.83,15.83,0,0,1,1-5.75,13.32,13.32,0,0,1,2.92-4.55,13,13,0,0,1,4.58-3,16.31,16.31,0,0,1,6-1.06,16.81,16.81,0,0,1,6.13,1.06,11.17,11.17,0,0,1,4.59,3.19,13.12,13.12,0,0,1,2.66,5.3,21.29,21.29,0,0,1,.45,7.39Zm14.88-5.61a5.44,5.44,0,0,0-2.22-4,8.29,8.29,0,0,0-4.89-1.33,8.63,8.63,0,0,0-4.86,1.33,6.85,6.85,0,0,0-2.8,4Z"/><path class="cls-2" d="M930.56,953.13V938.64a8,8,0,0,0-1.69-5.25,6,6,0,0,0-4.92-2.08,6.54,6.54,0,0,0-2.88.61,6.7,6.7,0,0,0-2.2,1.66,7.62,7.62,0,0,0-1.41,2.45A8.45,8.45,0,0,0,917,939v14.16h-6.72V925.75h6l.44,3.5A12.46,12.46,0,0,1,921,926a12.27,12.27,0,0,1,4.78-.89,11.76,11.76,0,0,1,4.53.89,10.19,10.19,0,0,1,3.69,2.61,12.78,12.78,0,0,1,2.47,4.22,16.62,16.62,0,0,1,.92,5.72v14.55Z"/><path class="cls-2" d="M954.11,918v7.89h7.55v5.83h-7.61v12a4,4,0,0,0,1,2.92,3.47,3.47,0,0,0,2.58,1,6.51,6.51,0,0,0,1.64-.22,8.49,8.49,0,0,0,1.64-.61l1.88,5.77a13.77,13.77,0,0,1-2.75.87,20.11,20.11,0,0,1-2.85.3,9.6,9.6,0,0,1-7.17-2.3q-2.67-2.47-2.67-7.7v-12h-5.11v-5.83h5.11v-7.17Z"/></svg>